STARTFONT 2.1
FONT -Fondu-ET Bembo Bold LF-Medium-R-Normal--13-120-75-75-P-71-MacRoman-1
SIZE 12 75 75
FONTBOUNDINGBOX 16 17 -2 -4
COMMENT Created by Fondu from a mac NFNT/FONT resource
STARTPROPERTIES 17
FOUNDRY "Fondu"
FAMILY_NAME "ET Bembo Bold LF"
WEIGHT_NAME "Medium"
SLANT "R"
SETWIDTH_NAME "Normal"
ADD_STYLE_NAME ""
PIXEL_SIZE 13
POINT_SIZE 120
RESOLUTION_X 75
RESOLUTION_Y 75
SPACING "P"
AVERAGE_WIDTH 71
CHARSET_REGISTRY "MacRoman"
CHARSET_ENCODING "1"
FONT_ASCENT 13
FONT_DESCENT 4
FACE_NAME "ET Bembo Bold LF"
ENDPROPERTIES
CHARS 206
STARTCHAR space
ENCODING 32
SWIDTH 245 0
DWIDTH 3 0
BBX 0 0 0 -4
BITMAP
ENDCHAR
STARTCHAR exclam
ENCODING 33
SWIDTH 272 0
DWIDTH 4 0
BBX 3 9 0 0
BITMAP
40
40
40
40
40
40
40
00
40
ENDCHAR
STARTCHAR quotedbl
ENCODING 34
SWIDTH 425 0
DWIDTH 6 0
BBX 5 4 0 5
BITMAP
50
50
50
50
ENDCHAR
STARTCHAR numbersign
ENCODING 35
SWIDTH 699 0
DWIDTH 9 0
BBX 9 10 0 -1
BITMAP
1100
1100
1200
7F80
2200
2200
FF00
2400
2400
4400
ENDCHAR
STARTCHAR dollar
ENCODING 36
SWIDTH 479 0
DWIDTH 6 0
BBX 6 10 0 -2
BITMAP
50
F8
D8
D0
70
5C
54
D4
78
50
ENDCHAR
STARTCHAR percent
ENCODING 37
SWIDTH 696 0
DWIDTH 9 0
BBX 9 9 0 -1
BITMAP
7100
5200
5400
7400
0F00
0D00
1500
2500
2300
ENDCHAR
STARTCHAR ampersand
ENCODING 38
SWIDTH 763 0
DWIDTH 10 0
BBX 11 8 0 0
BITMAP
3C00
2400
25C0
3880
CD00
8600
8700
7980
ENDCHAR
STARTCHAR quotesingle
ENCODING 39
SWIDTH 185 0
DWIDTH 4 0
BBX 2 3 0 6
BITMAP
40
40
40
ENDCHAR
STARTCHAR parenleft
ENCODING 40
SWIDTH 326 0
DWIDTH 4 0
BBX 5 12 0 -3
BITMAP
10
20
20
40
40
40
40
40
40
20
20
10
ENDCHAR
STARTCHAR parenright
ENCODING 41
SWIDTH 316 0
DWIDTH 4 0
BBX 5 12 -1 -3
BITMAP
40
20
20
10
10
10
10
10
10
20
20
40
ENDCHAR
STARTCHAR asterisk
ENCODING 42
SWIDTH 534 0
DWIDTH 7 0
BBX 6 6 1 2
BITMAP
20
A8
78
78
A8
20
ENDCHAR
STARTCHAR plus
ENCODING 43
SWIDTH 698 0
DWIDTH 9 0
BBX 9 9 0 0
BITMAP
0800
0800
0800
0800
7F00
0800
0800
0800
0800
ENDCHAR
STARTCHAR comma
ENCODING 44
SWIDTH 251 0
DWIDTH 3 0
BBX 2 3 0 -1
BITMAP
40
40
80
ENDCHAR
STARTCHAR hyphen
ENCODING 45
SWIDTH 435 0
DWIDTH 6 0
BBX 6 1 0 3
BITMAP
78
ENDCHAR
STARTCHAR period
ENCODING 46
SWIDTH 217 0
DWIDTH 3 0
BBX 2 1 0 0
BITMAP
40
ENDCHAR
STARTCHAR slash
ENCODING 47
SWIDTH 479 0
DWIDTH 6 0
BBX 7 9 0 0
BITMAP
04
0C
08
10
10
20
20
40
40
ENDCHAR
STARTCHAR zero
ENCODING 48
SWIDTH 489 0
DWIDTH 6 0
BBX 6 8 0 0
BITMAP
30
48
84
84
84
84
48
30
ENDCHAR
STARTCHAR one
ENCODING 49
SWIDTH 489 0
DWIDTH 6 0
BBX 5 9 1 0
BITMAP
20
60
A0
20
20
20
20
20
70
ENDCHAR
STARTCHAR two
ENCODING 50
SWIDTH 489 0
DWIDTH 6 0
BBX 6 8 0 0
BITMAP
78
48
88
08
10
20
40
F8
ENDCHAR
STARTCHAR three
ENCODING 51
SWIDTH 489 0
DWIDTH 6 0
BBX 7 8 -1 0
BITMAP
38
48
08
38
04
04
44
78
ENDCHAR
STARTCHAR four
ENCODING 52
SWIDTH 489 0
DWIDTH 6 0
BBX 7 9 0 0
BITMAP
08
18
18
28
28
48
7C
08
08
ENDCHAR
STARTCHAR five
ENCODING 53
SWIDTH 489 0
DWIDTH 6 0
BBX 6 8 0 0
BITMAP
78
40
40
70
08
08
48
70
ENDCHAR
STARTCHAR six
ENCODING 54
SWIDTH 489 0
DWIDTH 6 0
BBX 6 9 0 0
BITMAP
08
10
20
40
70
48
48
48
30
ENDCHAR
STARTCHAR seven
ENCODING 55
SWIDTH 489 0
DWIDTH 6 0
BBX 6 8 0 0
BITMAP
FC
88
08
10
10
30
20
60
ENDCHAR
STARTCHAR eight
ENCODING 56
SWIDTH 488 0
DWIDTH 6 0
BBX 6 8 0 0
BITMAP
38
44
44
68
3C
44
44
38
ENDCHAR
STARTCHAR nine
ENCODING 57
SWIDTH 489 0
DWIDTH 6 0
BBX 6 8 0 0
BITMAP
38
4C
44
44
3C
04
08
10
ENDCHAR
STARTCHAR colon
ENCODING 58
SWIDTH 257 0
DWIDTH 3 0
BBX 2 5 1 0
BITMAP
80
00
00
00
80
ENDCHAR
STARTCHAR semicolon
ENCODING 59
SWIDTH 230 0
DWIDTH 3 0
BBX 2 6 0 -1
BITMAP
40
00
00
00
40
40
ENDCHAR
STARTCHAR less
ENCODING 60
SWIDTH 698 0
DWIDTH 9 0
BBX 9 7 0 1
BITMAP
0100
0700
3800
6000
3800
0E00
0100
ENDCHAR
STARTCHAR equal
ENCODING 61
SWIDTH 698 0
DWIDTH 9 0
BBX 9 4 0 2
BITMAP
7F00
0000
0000
7F00
ENDCHAR
STARTCHAR greater
ENCODING 62
SWIDTH 698 0
DWIDTH 9 0
BBX 9 7 0 1
BITMAP
4000
7000
0E00
0300
0E00
3800
4000
ENDCHAR
STARTCHAR question
ENCODING 63
SWIDTH 362 0
DWIDTH 5 0
BBX 4 8 0 0
BITMAP
E0
70
10
30
40
40
00
40
ENDCHAR
STARTCHAR at
ENCODING 64
SWIDTH 960 0
DWIDTH 12 0
BBX 10 10 1 -1
BITMAP
1F00
2080
4040
8F40
9A40
9240
9680
5B40
6080
1F00
ENDCHAR
STARTCHAR A
ENCODING 65
SWIDTH 711 0
DWIDTH 9 0
BBX 10 8 0 0
BITMAP
0800
1400
1400
1E00
2200
2200
4300
E780
ENDCHAR
STARTCHAR B
ENCODING 66
SWIDTH 656 0
DWIDTH 9 0
BBX 8 8 0 0
BITMAP
F8
24
24
3C
26
22
22
FC
ENDCHAR
STARTCHAR C
ENCODING 67
SWIDTH 762 0
DWIDTH 10 0
BBX 9 8 0 0
BITMAP
1F00
2100
4000
4000
4000
4080
2100
1F00
ENDCHAR
STARTCHAR D
ENCODING 68
SWIDTH 773 0
DWIDTH 10 0
BBX 10 8 -1 0
BITMAP
7F00
2180
20C0
2040
2040
2040
2080
7F00
ENDCHAR
STARTCHAR E
ENCODING 69
SWIDTH 619 0
DWIDTH 8 0
BBX 8 8 0 0
BITMAP
FE
22
20
3C
24
20
22
FE
ENDCHAR
STARTCHAR F
ENCODING 70
SWIDTH 543 0
DWIDTH 7 0
BBX 7 8 0 0
BITMAP
7E
22
22
3E
22
20
20
70
ENDCHAR
STARTCHAR G
ENCODING 71
SWIDTH 763 0
DWIDTH 10 0
BBX 10 8 0 0
BITMAP
1F00
2100
4000
4000
4780
4100
2100
1E00
ENDCHAR
STARTCHAR H
ENCODING 72
SWIDTH 788 0
DWIDTH 10 0
BBX 10 8 0 0
BITMAP
7380
2100
2100
3F00
2100
2100
2100
7380
ENDCHAR
STARTCHAR I
ENCODING 73
SWIDTH 363 0
DWIDTH 5 0
BBX 5 8 0 0
BITMAP
70
20
20
20
20
20
20
70
ENDCHAR
STARTCHAR J
ENCODING 74
SWIDTH 324 0
DWIDTH 4 0
BBX 6 12 -2 -4
BITMAP
38
10
10
10
10
10
10
10
10
10
E0
60
ENDCHAR
STARTCHAR K
ENCODING 75
SWIDTH 740 0
DWIDTH 10 0
BBX 10 8 0 0
BITMAP
7F00
2400
2800
3000
3800
2C00
2600
F780
ENDCHAR
STARTCHAR L
ENCODING 76
SWIDTH 595 0
DWIDTH 8 0
BBX 8 8 0 0
BITMAP
78
20
20
20
20
20
22
7E
ENDCHAR
STARTCHAR M
ENCODING 77
SWIDTH 942 0
DWIDTH 12 0
BBX 12 8 0 0
BITMAP
70E0
30C0
38C0
2940
2940
2640
2640
72E0
ENDCHAR
STARTCHAR N
ENCODING 78
SWIDTH 834 0
DWIDTH 11 0
BBX 11 8 0 0
BITMAP
71C0
3080
2880
2C80
2680
2380
2180
7080
ENDCHAR
STARTCHAR O
ENCODING 79
SWIDTH 827 0
DWIDTH 11 0
BBX 10 8 0 0
BITMAP
1E00
2100
4080
4080
4080
4080
2100
1E00
ENDCHAR
STARTCHAR P
ENCODING 80
SWIDTH 577 0
DWIDTH 8 0
BBX 7 8 0 0
BITMAP
7C
22
22
26
3C
20
20
78
ENDCHAR
STARTCHAR Q
ENCODING 81
SWIDTH 822 0
DWIDTH 11 0
BBX 10 11 0 -3
BITMAP
1E00
2100
4080
4080
4080
4080
6180
3300
0E00
0300
01C0
ENDCHAR
STARTCHAR R
ENCODING 82
SWIDTH 696 0
DWIDTH 9 0
BBX 9 8 0 0
BITMAP
7C00
2200
2200
2600
3C00
2600
2600
7B80
ENDCHAR
STARTCHAR S
ENCODING 83
SWIDTH 513 0
DWIDTH 7 0
BBX 6 8 0 0
BITMAP
38
44
60
30
18
04
44
78
ENDCHAR
STARTCHAR T
ENCODING 84
SWIDTH 681 0
DWIDTH 9 0
BBX 9 8 0 0
BITMAP
7F00
0900
0800
0800
0800
0800
0800
3E00
ENDCHAR
STARTCHAR U
ENCODING 85
SWIDTH 815 0
DWIDTH 11 0
BBX 11 8 0 0
BITMAP
71C0
2080
2080
2080
2080
2080
3180
1F00
ENDCHAR
STARTCHAR V
ENCODING 86
SWIDTH 761 0
DWIDTH 10 0
BBX 10 9 0 -1
BITMAP
F3C0
2100
3100
3300
1A00
1A00
0C00
0C00
0800
ENDCHAR
STARTCHAR W
ENCODING 87
SWIDTH 1086 0
DWIDTH 14 0
BBX 14 9 0 -1
BITMAP
FFDC
2290
3310
1110
1BA0
1BA0
0EA0
0CC0
0440
ENDCHAR
STARTCHAR X
ENCODING 88
SWIDTH 785 0
DWIDTH 10 0
BBX 11 8 0 0
BITMAP
FB80
3200
1E00
0C00
0E00
1200
2300
F3C0
ENDCHAR
STARTCHAR Y
ENCODING 89
SWIDTH 728 0
DWIDTH 9 0
BBX 10 8 -1 0
BITMAP
79C0
1100
1900
0E00
0400
0400
0400
0E00
ENDCHAR
STARTCHAR Z
ENCODING 90
SWIDTH 705 0
DWIDTH 9 0
BBX 9 8 0 0
BITMAP
7F00
4600
0400
0C00
1800
3000
6100
FF00
ENDCHAR
STARTCHAR bracketleft
ENCODING 91
SWIDTH 337 0
DWIDTH 4 0
BBX 3 12 1 -3
BITMAP
C0
80
80
80
80
80
80
80
80
80
80
C0
ENDCHAR
STARTCHAR backslash
ENCODING 92
SWIDTH 479 0
DWIDTH 6 0
BBX 6 9 0 0
BITMAP
40
40
20
20
30
10
18
08
0C
ENDCHAR
STARTCHAR bracketright
ENCODING 93
SWIDTH 343 0
DWIDTH 4 0
BBX 3 12 0 -3
BITMAP
C0
40
40
40
40
40
40
40
40
40
40
C0
ENDCHAR
STARTCHAR asciicircum
ENCODING 94
SWIDTH 491 0
DWIDTH 6 0
BBX 7 5 0 5
BITMAP
10
30
68
44
84
ENDCHAR
STARTCHAR underscore
ENCODING 95
SWIDTH 523 0
DWIDTH 7 0
BBX 8 1 -1 -3
BITMAP
7F
ENDCHAR
STARTCHAR grave
ENCODING 96
SWIDTH 348 0
DWIDTH 4 0
BBX 2 3 0 6
BITMAP
40
40
40
ENDCHAR
STARTCHAR a
ENCODING 97
SWIDTH 421 0
DWIDTH 5 0
BBX 6 5 0 0
BITMAP
70
90
10
F0
F8
ENDCHAR
STARTCHAR b
ENCODING 98
SWIDTH 494 0
DWIDTH 6 0
BBX 6 9 0 0
BITMAP
40
40
40
40
58
6C
44
44
78
ENDCHAR
STARTCHAR c
ENCODING 99
SWIDTH 434 0
DWIDTH 6 0
BBX 5 5 0 0
BITMAP
78
80
80
C8
70
ENDCHAR
STARTCHAR d
ENCODING 100
SWIDTH 521 0
DWIDTH 7 0
BBX 7 9 0 0
BITMAP
08
08
08
08
78
88
88
C8
7C
ENDCHAR
STARTCHAR e
ENCODING 101
SWIDTH 427 0
DWIDTH 6 0
BBX 5 5 0 0
BITMAP
70
F8
80
C8
70
ENDCHAR
STARTCHAR f
ENCODING 102
SWIDTH 324 0
DWIDTH 4 0
BBX 6 9 0 0
BITMAP
38
48
40
40
E0
40
40
40
F0
ENDCHAR
STARTCHAR g
ENCODING 103
SWIDTH 486 0
DWIDTH 6 0
BBX 7 8 0 -3
BITMAP
7C
88
88
70
FC
84
84
78
ENDCHAR
STARTCHAR h
ENCODING 104
SWIDTH 526 0
DWIDTH 7 0
BBX 7 9 0 0
BITMAP
40
40
40
40
7C
44
44
44
EE
ENDCHAR
STARTCHAR i
ENCODING 105
SWIDTH 273 0
DWIDTH 4 0
BBX 3 8 0 0
BITMAP
40
00
00
C0
40
40
40
E0
ENDCHAR
STARTCHAR j
ENCODING 106
SWIDTH 250 0
DWIDTH 3 0
BBX 5 11 -2 -3
BITMAP
10
00
10
30
10
10
10
10
10
50
60
ENDCHAR
STARTCHAR k
ENCODING 107
SWIDTH 518 0
DWIDTH 7 0
BBX 7 9 0 0
BITMAP
40
40
40
40
5C
50
70
58
FC
ENDCHAR
STARTCHAR l
ENCODING 108
SWIDTH 269 0
DWIDTH 4 0
BBX 4 9 0 0
BITMAP
C0
40
40
40
40
40
40
40
E0
ENDCHAR
STARTCHAR m
ENCODING 109
SWIDTH 815 0
DWIDTH 11 0
BBX 11 5 0 0
BITMAP
DB80
6480
4480
4480
EFC0
ENDCHAR
STARTCHAR n
ENCODING 110
SWIDTH 519 0
DWIDTH 7 0
BBX 7 5 0 0
BITMAP
DC
64
44
44
EE
ENDCHAR
STARTCHAR o
ENCODING 111
SWIDTH 502 0
DWIDTH 7 0
BBX 6 5 0 0
BITMAP
78
8C
84
C4
78
ENDCHAR
STARTCHAR p
ENCODING 112
SWIDTH 506 0
DWIDTH 7 0
BBX 8 9 -1 -4
BITMAP
6C
32
22
22
3C
20
20
20
70
ENDCHAR
STARTCHAR q
ENCODING 113
SWIDTH 507 0
DWIDTH 7 0
BBX 7 9 0 -4
BITMAP
78
88
88
C8
78
08
08
08
1C
ENDCHAR
STARTCHAR r
ENCODING 114
SWIDTH 363 0
DWIDTH 5 0
BBX 5 6 0 0
BITMAP
40
F0
40
40
40
E0
ENDCHAR
STARTCHAR s
ENCODING 115
SWIDTH 327 0
DWIDTH 4 0
BBX 4 5 0 0
BITMAP
F0
90
60
90
E0
ENDCHAR
STARTCHAR t
ENCODING 116
SWIDTH 322 0
DWIDTH 4 0
BBX 4 6 0 0
BITMAP
40
F0
40
40
50
60
ENDCHAR
STARTCHAR u
ENCODING 117
SWIDTH 534 0
DWIDTH 7 0
BBX 8 6 0 0
BITMAP
4C
44
44
44
44
7E
ENDCHAR
STARTCHAR v
ENCODING 118
SWIDTH 512 0
DWIDTH 7 0
BBX 7 6 0 -1
BITMAP
EC
68
28
28
10
10
ENDCHAR
STARTCHAR w
ENCODING 119
SWIDTH 769 0
DWIDTH 10 0
BBX 10 6 0 0
BITMAP
FFC0
4C80
2C80
2F00
3300
1200
ENDCHAR
STARTCHAR x
ENCODING 120
SWIDTH 536 0
DWIDTH 7 0
BBX 7 6 0 0
BITMAP
EE
68
30
18
28
EE
ENDCHAR
STARTCHAR y
ENCODING 121
SWIDTH 491 0
DWIDTH 6 0
BBX 8 9 -1 -4
BITMAP
76
34
14
18
18
08
10
10
30
ENDCHAR
STARTCHAR z
ENCODING 122
SWIDTH 410 0
DWIDTH 5 0
BBX 6 5 0 0
BITMAP
78
90
20
60
F8
ENDCHAR
STARTCHAR braceleft
ENCODING 123
SWIDTH 501 0
DWIDTH 7 0
BBX 5 12 1 -2
BITMAP
10
20
20
20
20
20
40
20
20
20
20
30
ENDCHAR
STARTCHAR bar
ENCODING 124
SWIDTH 534 0
DWIDTH 7 0
BBX 2 13 3 -1
BITMAP
80
80
80
80
80
80
80
80
80
80
80
80
80
ENDCHAR
STARTCHAR braceright
ENCODING 125
SWIDTH 501 0
DWIDTH 7 0
BBX 5 12 1 -3
BITMAP
40
20
20
20
20
10
30
20
20
20
20
40
ENDCHAR
STARTCHAR asciitilde
ENCODING 126
SWIDTH 567 0
DWIDTH 7 0
BBX 8 2 0 3
BITMAP
72
9E
ENDCHAR
STARTCHAR Adieresis
ENCODING 128
SWIDTH 709 0
DWIDTH 9 0
BBX 9 11 0 0
BITMAP
1400
1400
0800
1800
1C00
1400
3C00
2600
2600
6200
E700
ENDCHAR
STARTCHAR Aring
ENCODING 129
SWIDTH 709 0
DWIDTH 9 0
BBX 11 12 -1 0
BITMAP
0E00
0A00
0E00
0000
0400
0E00
0A00
1F00
1100
1180
2180
73C0
ENDCHAR
STARTCHAR Ccedilla
ENCODING 130
SWIDTH 762 0
DWIDTH 10 0
BBX 10 11 0 -3
BITMAP
1F00
2180
4080
4000
4000
4000
2080
1F00
0800
0C00
0C00
ENDCHAR
STARTCHAR Eacute
ENCODING 131
SWIDTH 619 0
DWIDTH 8 0
BBX 8 12 0 0
BITMAP
18
10
00
00
FE
22
20
3C
24
20
22
FE
ENDCHAR
STARTCHAR Ntilde
ENCODING 132
SWIDTH 834 0
DWIDTH 11 0
BBX 11 12 0 0
BITMAP
0800
0E00
1600
0000
71C0
3080
2880
2C80
2680
2380
2180
7080
ENDCHAR
STARTCHAR Odieresis
ENCODING 133
SWIDTH 827 0
DWIDTH 11 0
BBX 10 11 0 0
BITMAP
1200
1200
0000
1E00
2100
4080
4080
4080
4080
2100
1E00
ENDCHAR
STARTCHAR Udieresis
ENCODING 134
SWIDTH 815 0
DWIDTH 11 0
BBX 11 11 0 0
BITMAP
1200
1200
0000
71C0
2080
2080
2080
2080
2080
3180
1F00
ENDCHAR
STARTCHAR aacute
ENCODING 135
SWIDTH 421 0
DWIDTH 5 0
BBX 6 8 0 0
BITMAP
30
20
00
70
90
10
F0
F8
ENDCHAR
STARTCHAR agrave
ENCODING 136
SWIDTH 421 0
DWIDTH 5 0
BBX 6 8 0 0
BITMAP
60
20
00
70
90
10
F0
F8
ENDCHAR
STARTCHAR acircumflex
ENCODING 137
SWIDTH 421 0
DWIDTH 5 0
BBX 6 8 0 0
BITMAP
60
50
90
70
90
10
F0
F8
ENDCHAR
STARTCHAR adieresis
ENCODING 138
SWIDTH 421 0
DWIDTH 5 0
BBX 5 8 0 0
BITMAP
50
50
00
70
90
30
D0
F0
ENDCHAR
STARTCHAR atilde
ENCODING 139
SWIDTH 421 0
DWIDTH 5 0
BBX 6 8 0 0
BITMAP
E8
B0
00
70
90
10
F0
F8
ENDCHAR
STARTCHAR aring
ENCODING 140
SWIDTH 421 0
DWIDTH 5 0
BBX 6 9 0 0
BITMAP
70
50
70
00
70
90
30
D0
F8
ENDCHAR
STARTCHAR ccedilla
ENCODING 141
SWIDTH 434 0
DWIDTH 6 0
BBX 6 9 0 -4
BITMAP
78
88
80
C0
70
30
30
10
60
ENDCHAR
STARTCHAR eacute
ENCODING 142
SWIDTH 427 0
DWIDTH 6 0
BBX 5 8 0 0
BITMAP
30
20
00
70
F8
80
C8
70
ENDCHAR
STARTCHAR egrave
ENCODING 143
SWIDTH 427 0
DWIDTH 6 0
BBX 5 8 0 0
BITMAP
60
20
00
70
F8
80
C8
70
ENDCHAR
STARTCHAR ecircumflex
ENCODING 144
SWIDTH 427 0
DWIDTH 6 0
BBX 5 8 0 0
BITMAP
20
50
10
70
F8
80
C8
70
ENDCHAR
STARTCHAR edieresis
ENCODING 145
SWIDTH 427 0
DWIDTH 6 0
BBX 6 8 -1 0
BITMAP
28
28
00
38
7C
40
44
38
ENDCHAR
STARTCHAR iacute
ENCODING 146
SWIDTH 273 0
DWIDTH 4 0
BBX 3 8 0 0
BITMAP
60
40
00
C0
40
40
40
E0
ENDCHAR
STARTCHAR igrave
ENCODING 147
SWIDTH 273 0
DWIDTH 4 0
BBX 4 8 -1 0
BITMAP
60
20
00
60
20
20
20
70
ENDCHAR
STARTCHAR icircumflex
ENCODING 148
SWIDTH 273 0
DWIDTH 4 0
BBX 5 9 -1 0
BITMAP
20
50
00
20
20
20
20
20
70
ENDCHAR
STARTCHAR idieresis
ENCODING 149
SWIDTH 273 0
DWIDTH 4 0
BBX 5 8 -1 0
BITMAP
50
50
00
60
20
20
20
70
ENDCHAR
STARTCHAR ntilde
ENCODING 150
SWIDTH 519 0
DWIDTH 7 0
BBX 7 8 0 0
BITMAP
74
5C
00
DC
64
44
44
EE
ENDCHAR
STARTCHAR oacute
ENCODING 151
SWIDTH 500 0
DWIDTH 7 0
BBX 6 9 0 0
BITMAP
18
10
10
00
78
8C
84
C4
78
ENDCHAR
STARTCHAR ograve
ENCODING 152
SWIDTH 500 0
DWIDTH 7 0
BBX 6 8 0 0
BITMAP
30
10
00
78
8C
84
C4
78
ENDCHAR
STARTCHAR ocircumflex
ENCODING 153
SWIDTH 500 0
DWIDTH 7 0
BBX 6 8 0 0
BITMAP
30
78
00
78
8C
84
C4
78
ENDCHAR
STARTCHAR odieresis
ENCODING 154
SWIDTH 500 0
DWIDTH 7 0
BBX 8 8 -1 0
BITMAP
24
24
00
3C
46
42
62
3C
ENDCHAR
STARTCHAR otilde
ENCODING 155
SWIDTH 500 0
DWIDTH 7 0
BBX 6 9 0 0
BITMAP
60
78
38
00
78
8C
84
C4
78
ENDCHAR
STARTCHAR uacute
ENCODING 156
SWIDTH 534 0
DWIDTH 7 0
BBX 8 9 0 0
BITMAP
18
10
00
4C
44
44
44
44
7E
ENDCHAR
STARTCHAR ugrave
ENCODING 157
SWIDTH 534 0
DWIDTH 7 0
BBX 8 9 0 0
BITMAP
30
10
00
4C
44
44
44
44
7E
ENDCHAR
STARTCHAR ucircumflex
ENCODING 158
SWIDTH 534 0
DWIDTH 7 0
BBX 8 9 0 0
BITMAP
30
38
48
4C
44
44
44
44
7E
ENDCHAR
STARTCHAR udieresis
ENCODING 159
SWIDTH 534 0
DWIDTH 7 0
BBX 8 8 0 0
BITMAP
28
28
00
44
44
44
44
7E
ENDCHAR
STARTCHAR dagger
ENCODING 160
SWIDTH 523 0
DWIDTH 7 0
BBX 7 12 0 -3
BITMAP
10
10
10
7C
7C
10
10
10
10
10
10
10
ENDCHAR
STARTCHAR degree
ENCODING 161
SWIDTH 415 0
DWIDTH 5 0
BBX 4 5 1 4
BITMAP
60
90
90
90
60
ENDCHAR
STARTCHAR cent
ENCODING 162
SWIDTH 447 0
DWIDTH 6 0
BBX 6 9 0 -2
BITMAP
08
08
38
40
50
64
78
40
40
ENDCHAR
STARTCHAR sterling
ENCODING 163
SWIDTH 796 0
DWIDTH 10 0
BBX 11 12 -1 -3
BITMAP
01C0
0240
0600
0400
0C00
0800
0800
7E00
1040
3C40
6640
4380
ENDCHAR
STARTCHAR section
ENCODING 164
SWIDTH 491 0
DWIDTH 6 0
BBX 6 12 0 -3
BITMAP
38
48
40
A0
50
50
28
18
18
08
48
70
ENDCHAR
STARTCHAR bullet
ENCODING 165
SWIDTH 371 0
DWIDTH 5 0
BBX 4 4 0 2
BITMAP
60
70
70
60
ENDCHAR
STARTCHAR paragraph
ENCODING 166
SWIDTH 494 0
DWIDTH 6 0
BBX 7 11 -1 -3
BITMAP
3E
7A
7A
7A
3A
0A
0A
0A
0A
0A
0A
ENDCHAR
STARTCHAR germandbls
ENCODING 167
SWIDTH 545 0
DWIDTH 7 0
BBX 7 9 0 0
BITMAP
38
44
44
48
58
44
44
44
F8
ENDCHAR
STARTCHAR registered
ENCODING 168
SWIDTH 796 0
DWIDTH 10 0
BBX 10 9 0 0
BITMAP
1E00
7D80
5280
9240
9C40
9640
5B80
6180
1E00
ENDCHAR
STARTCHAR copyright
ENCODING 169
SWIDTH 796 0
DWIDTH 10 0
BBX 10 9 0 0
BITMAP
1E00
7F80
7280
A040
A040
B240
5C80
6180
1E00
ENDCHAR
STARTCHAR trademark
ENCODING 170
SWIDTH 1025 0
DWIDTH 13 0
BBX 13 7 0 3
BITMAP
FE18
FF38
A730
23B0
22D0
22D0
7338
ENDCHAR
STARTCHAR acute
ENCODING 171
SWIDTH 349 0
DWIDTH 5 0
BBX 3 2 1 6
BITMAP
60
40
ENDCHAR
STARTCHAR dieresis
ENCODING 172
SWIDTH 348 0
DWIDTH 5 0
BBX 4 2 0 6
BITMAP
90
90
ENDCHAR
STARTCHAR AE
ENCODING 174
SWIDTH 915 0
DWIDTH 12 0
BBX 13 8 -1 0
BITMAP
07F0
0510
0500
09E0
1F00
1100
2100
77F0
ENDCHAR
STARTCHAR Oslash
ENCODING 175
SWIDTH 864 0
DWIDTH 11 0
BBX 11 9 0 0
BITMAP
1F80
2180
4140
4240
4440
4840
50C0
3080
4F00
ENDCHAR
STARTCHAR plusminus
ENCODING 177
SWIDTH 698 0
DWIDTH 9 0
BBX 9 10 0 0
BITMAP
0800
0800
0800
0800
7F00
0800
0800
0800
0000
7F00
ENDCHAR
STARTCHAR yen
ENCODING 180
SWIDTH 523 0
DWIDTH 7 0
BBX 7 9 0 0
BITMAP
EE
64
FE
28
FE
10
10
10
38
ENDCHAR
STARTCHAR mu
ENCODING 181
SWIDTH 524 0
DWIDTH 7 0
BBX 7 11 0 -4
BITMAP
48
48
48
48
48
48
7C
40
80
80
80
ENDCHAR
STARTCHAR ordfeminine
ENCODING 187
SWIDTH 272 0
DWIDTH 4 0
BBX 4 4 0 5
BITMAP
60
20
E0
E0
ENDCHAR
STARTCHAR ordmasculine
ENCODING 188
SWIDTH 360 0
DWIDTH 5 0
BBX 5 4 0 5
BITMAP
60
90
90
60
ENDCHAR
STARTCHAR ae
ENCODING 190
SWIDTH 654 0
DWIDTH 9 0
BBX 8 5 0 0
BITMAP
3E
5F
10
79
6E
ENDCHAR
STARTCHAR oslash
ENCODING 191
SWIDTH 545 0
DWIDTH 7 0
BBX 7 5 0 0
BITMAP
3C
54
54
64
78
ENDCHAR
STARTCHAR questiondown
ENCODING 192
SWIDTH 371 0
DWIDTH 5 0
BBX 4 8 0 -3
BITMAP
20
20
20
20
C0
80
E0
70
ENDCHAR
STARTCHAR exclamdown
ENCODING 193
SWIDTH 272 0
DWIDTH 4 0
BBX 3 8 0 -3
BITMAP
40
40
40
40
40
40
40
40
ENDCHAR
STARTCHAR logicalnot
ENCODING 194
SWIDTH 698 0
DWIDTH 9 0
BBX 9 4 0 2
BITMAP
7F00
0100
0100
0100
ENDCHAR
STARTCHAR florin
ENCODING 196
SWIDTH 523 0
DWIDTH 7 0
BBX 8 12 -1 -3
BITMAP
03
05
0C
1E
0C
08
18
18
18
10
70
60
ENDCHAR
STARTCHAR guillemotleft
ENCODING 199
SWIDTH 371 0
DWIDTH 5 0
BBX 5 5 0 0
BITMAP
30
50
F0
50
30
ENDCHAR
STARTCHAR guillemotright
ENCODING 200
SWIDTH 371 0
DWIDTH 5 0
BBX 5 5 0 0
BITMAP
20
50
70
50
20
ENDCHAR
STARTCHAR ellipsis
ENCODING 201
SWIDTH 1082 0
DWIDTH 14 0
BBX 11 2 1 0
BITMAP
4420
4420
ENDCHAR
STARTCHAR Agrave
ENCODING 203
SWIDTH 709 0
DWIDTH 9 0
BBX 10 12 0 0
BITMAP
1800
0800
0000
0800
1C00
1400
1400
3E00
2200
2300
4300
E780
ENDCHAR
STARTCHAR Atilde
ENCODING 204
SWIDTH 709 0
DWIDTH 9 0
BBX 10 12 0 0
BITMAP
1A00
2C00
0000
0800
1C00
1400
1400
3E00
2200
2300
4300
E780
ENDCHAR
STARTCHAR Otilde
ENCODING 205
SWIDTH 827 0
DWIDTH 11 0
BBX 10 11 0 0
BITMAP
1A00
1600
0000
1E00
2100
4080
4080
4080
4080
2100
1E00
ENDCHAR
STARTCHAR OE
ENCODING 206
SWIDTH 1036 0
DWIDTH 13 0
BBX 13 8 0 0
BITMAP
1FF0
2110
4100
41E0
4100
4100
2108
1FF0
ENDCHAR
STARTCHAR oe
ENCODING 207
SWIDTH 775 0
DWIDTH 10 0
BBX 10 5 0 0
BITMAP
3B80
47C0
4400
4640
3B80
ENDCHAR
STARTCHAR endash
ENCODING 208
SWIDTH 610 0
DWIDTH 8 0
BBX 8 1 0 3
BITMAP
FE
ENDCHAR
STARTCHAR emdash
ENCODING 209
SWIDTH 855 0
DWIDTH 11 0
BBX 9 1 1 3
BITMAP
FF80
ENDCHAR
STARTCHAR quotedblleft
ENCODING 210
SWIDTH 502 0
DWIDTH 7 0
BBX 5 3 1 6
BITMAP
90
D8
D8
ENDCHAR
STARTCHAR quotedblright
ENCODING 211
SWIDTH 501 0
DWIDTH 7 0
BBX 4 2 1 7
BITMAP
90
90
ENDCHAR
STARTCHAR quoteleft
ENCODING 212
SWIDTH 272 0
DWIDTH 4 0
BBX 2 3 0 6
BITMAP
40
40
40
ENDCHAR
STARTCHAR quoteright
ENCODING 213
SWIDTH 272 0
DWIDTH 4 0
BBX 2 3 0 6
BITMAP
40
40
40
ENDCHAR
STARTCHAR divide
ENCODING 214
SWIDTH 699 0
DWIDTH 9 0
BBX 9 6 0 1
BITMAP
0800
0000
7F00
0000
0000
0800
ENDCHAR
STARTCHAR ydieresis
ENCODING 216
SWIDTH 494 0
DWIDTH 6 0
BBX 7 12 -1 -4
BITMAP
24
24
00
66
24
38
38
18
10
10
30
20
ENDCHAR
STARTCHAR Ydieresis
ENCODING 217
SWIDTH 728 0
DWIDTH 9 0
BBX 9 11 0 0
BITMAP
1400
1400
0000
F380
2200
3400
1400
0800
0800
0800
1C00
ENDCHAR
STARTCHAR fraction
ENCODING 218
SWIDTH 242 0
DWIDTH 3 0
BBX 6 11 -1 -3
BITMAP
08
08
10
10
20
20
20
40
40
40
80
ENDCHAR
STARTCHAR guilsinglleft
ENCODING 220
SWIDTH 880 0
DWIDTH 11 0
BBX 13 9 -1 0
BITMAP
0040
1FE0
2200
2200
7FE0
2220
2220
2220
7FF0
ENDCHAR
STARTCHAR guilsinglright
ENCODING 221
SWIDTH 860 0
DWIDTH 11 0
BBX 12 9 -1 0
BITMAP
0FE0
1320
2220
2220
7FE0
2220
2220
2220
7F70
ENDCHAR
STARTCHAR fi
ENCODING 222
SWIDTH 559 0
DWIDTH 7 0
BBX 7 9 0 0
BITMAP
1C
24
40
40
FC
44
44
44
EE
ENDCHAR
STARTCHAR fl
ENCODING 223
SWIDTH 539 0
DWIDTH 7 0
BBX 7 9 0 0
BITMAP
1C
24
44
44
FC
44
44
44
EE
ENDCHAR
STARTCHAR daggerdbl
ENCODING 224
SWIDTH 627 0
DWIDTH 8 0
BBX 11 9 -1 0
BITMAP
07C0
1B00
2200
2200
7F80
2200
2200
2200
7F80
ENDCHAR
STARTCHAR periodcentered
ENCODING 225
SWIDTH 257 0
DWIDTH 3 0
BBX 2 1 0 4
BITMAP
40
ENDCHAR
STARTCHAR quotesinglbase
ENCODING 226
SWIDTH 257 0
DWIDTH 3 0
BBX 2 2 0 -1
BITMAP
40
40
ENDCHAR
STARTCHAR quotedblbase
ENCODING 227
SWIDTH 473 0
DWIDTH 6 0
BBX 4 2 1 -1
BITMAP
90
90
ENDCHAR
STARTCHAR perthousand
ENCODING 228
SWIDTH 1047 0
DWIDTH 14 0
BBX 13 9 0 -1
BITMAP
3100
4A00
4A00
3400
0B30
0CC8
14C8
14C8
2330
ENDCHAR
STARTCHAR Acircumflex
ENCODING 229
SWIDTH 709 0
DWIDTH 9 0
BBX 10 12 0 0
BITMAP
0C00
1400
0000
0800
1C00
1400
1400
3E00
2200
2300
4300
E780
ENDCHAR
STARTCHAR Ecircumflex
ENCODING 230
SWIDTH 619 0
DWIDTH 8 0
BBX 8 11 0 0
BITMAP
18
28
00
FE
22
20
3C
24
20
22
FE
ENDCHAR
STARTCHAR Aacute
ENCODING 231
SWIDTH 709 0
DWIDTH 9 0
BBX 10 13 0 0
BITMAP
0400
0C00
0800
0000
0800
1C00
1400
1400
3E00
2200
2300
4300
E780
ENDCHAR
STARTCHAR Edieresis
ENCODING 232
SWIDTH 619 0
DWIDTH 8 0
BBX 7 11 0 0
BITMAP
28
28
00
FC
20
24
3C
24
20
22
FE
ENDCHAR
STARTCHAR Egrave
ENCODING 233
SWIDTH 619 0
DWIDTH 8 0
BBX 8 12 0 0
BITMAP
30
10
00
00
FE
22
20
3C
24
20
22
FE
ENDCHAR
STARTCHAR Iacute
ENCODING 234
SWIDTH 363 0
DWIDTH 5 0
BBX 5 11 0 0
BITMAP
30
20
00
70
20
20
20
20
20
20
70
ENDCHAR
STARTCHAR Icircumflex
ENCODING 235
SWIDTH 362 0
DWIDTH 5 0
BBX 5 11 0 0
BITMAP
20
50
00
70
20
20
20
20
20
20
70
ENDCHAR
STARTCHAR Idieresis
ENCODING 236
SWIDTH 363 0
DWIDTH 5 0
BBX 4 11 0 0
BITMAP
90
90
00
F0
20
20
20
20
20
20
F0
ENDCHAR
STARTCHAR Igrave
ENCODING 237
SWIDTH 363 0
DWIDTH 5 0
BBX 5 12 0 0
BITMAP
60
20
20
00
70
20
20
20
20
20
20
70
ENDCHAR
STARTCHAR Oacute
ENCODING 238
SWIDTH 827 0
DWIDTH 11 0
BBX 10 11 0 0
BITMAP
0600
0400
0800
1E00
2100
4080
4080
4080
4080
2100
1E00
ENDCHAR
STARTCHAR Ocircumflex
ENCODING 239
SWIDTH 827 0
DWIDTH 11 0
BBX 10 11 0 0
BITMAP
0C00
0E00
1200
1E00
2100
4080
4080
4080
4080
2100
1E00
ENDCHAR
STARTCHAR Ograve
ENCODING 241
SWIDTH 827 0
DWIDTH 11 0
BBX 10 12 0 0
BITMAP
0C00
0C00
0400
0000
1E00
2100
4080
4080
4080
4080
2100
1E00
ENDCHAR
STARTCHAR Uacute
ENCODING 242
SWIDTH 815 0
DWIDTH 11 0
BBX 11 12 0 0
BITMAP
0600
0400
0400
0000
71C0
2080
2080
2080
2080
2080
3180
1F00
ENDCHAR
STARTCHAR Ucircumflex
ENCODING 243
SWIDTH 815 0
DWIDTH 11 0
BBX 11 11 0 0
BITMAP
0C00
0A00
0000
71C0
2080
2080
2080
2080
2080
3180
1F00
ENDCHAR
STARTCHAR Ugrave
ENCODING 244
SWIDTH 815 0
DWIDTH 11 0
BBX 11 12 0 0
BITMAP
0C00
0C00
0400
0000
71C0
2080
2080
2080
2080
2080
3180
1F00
ENDCHAR
STARTCHAR dotlessi
ENCODING 245
SWIDTH 273 0
DWIDTH 4 0
BBX 3 6 0 0
BITMAP
40
40
40
40
40
E0
ENDCHAR
STARTCHAR circumflex
ENCODING 246
SWIDTH 349 0
DWIDTH 5 0
BBX 5 2 0 6
BITMAP
70
90
ENDCHAR
STARTCHAR tilde
ENCODING 247
SWIDTH 349 0
DWIDTH 5 0
BBX 5 2 0 6
BITMAP
E0
F0
ENDCHAR
STARTCHAR macron
ENCODING 248
SWIDTH 349 0
DWIDTH 5 0
BBX 5 1 0 6
BITMAP
F0
ENDCHAR
STARTCHAR breve
ENCODING 249
SWIDTH 349 0
DWIDTH 5 0
BBX 5 2 0 6
BITMAP
90
70
ENDCHAR
STARTCHAR dotaccent
ENCODING 250
SWIDTH 349 0
DWIDTH 5 0
BBX 2 2 1 6
BITMAP
40
40
ENDCHAR
STARTCHAR ring
ENCODING 251
SWIDTH 349 0
DWIDTH 5 0
BBX 3 3 1 6
BITMAP
E0
A0
E0
ENDCHAR
STARTCHAR cedilla
ENCODING 252
SWIDTH 349 0
DWIDTH 5 0
BBX 3 3 0 -3
BITMAP
60
20
60
ENDCHAR
STARTCHAR hungarumlaut
ENCODING 253
SWIDTH 349 0
DWIDTH 5 0
BBX 5 2 0 6
BITMAP
50
A0
ENDCHAR
STARTCHAR ogonek
ENCODING 254
SWIDTH 349 0
DWIDTH 5 0
BBX 5 4 0 -3
BITMAP
40
40
40
70
ENDCHAR
STARTCHAR caron
ENCODING 255
SWIDTH 349 0
DWIDTH 5 0
BBX 5 2 0 6
BITMAP
D0
60
ENDCHAR
ENDFONT
